{
	"asset":{
		"generator":"Khronos glTF Blender I/O v5.0.21",
		"version":"2.0"
	},
	"scene":0,
	"scenes":[
		{
			"name":"Scene",
			"nodes":[
				0,
				1,
				2,
				3,
				4,
				5,
				6,
				7,
				8,
				9,
				10,
				11,
				12,
				13,
				14,
				15,
				16,
				17,
				18,
				19,
				20,
				21,
				22,
				23,
				24,
				25,
				26,
				27,
				28,
				29,
				30,
				31,
				32,
				33,
				34,
				35,
				36,
				37,
				38,
				39,
				40,
				41,
				42,
				43,
				44,
				45,
				46,
				47,
				48,
				49,
				50,
				51,
				52
			]
		}
	],
	"nodes":[
		{
			"mesh":0,
			"name":"Plane.012"
		},
		{
			"mesh":1,
			"name":"Cylinder.004"
		},
		{
			"mesh":2,
			"name":"Plane.013"
		},
		{
			"mesh":3,
			"name":"Plane.023"
		},
		{
			"mesh":4,
			"name":"Circle.004"
		},
		{
			"mesh":5,
			"name":"Cylinder.006"
		},
		{
			"mesh":6,
			"name":"Plane.034"
		},
		{
			"mesh":7,
			"name":"Plane.043"
		},
		{
			"mesh":8,
			"name":"Plane.046"
		},
		{
			"mesh":9,
			"name":"Plane.024"
		},
		{
			"mesh":10,
			"name":"Plane.010"
		},
		{
			"mesh":11,
			"name":"Plane.015"
		},
		{
			"mesh":12,
			"name":"Plane.014"
		},
		{
			"mesh":13,
			"name":"Plane.019"
		},
		{
			"mesh":14,
			"name":"Cylinder.009"
		},
		{
			"mesh":15,
			"name":"Circle.002"
		},
		{
			"mesh":16,
			"name":"Plane.045"
		},
		{
			"mesh":17,
			"name":"Plane.007"
		},
		{
			"mesh":18,
			"name":"Plane.040"
		},
		{
			"mesh":19,
			"name":"Plane.048"
		},
		{
			"mesh":20,
			"name":"Plane.003"
		},
		{
			"mesh":21,
			"name":"Plane.035"
		},
		{
			"mesh":22,
			"name":"Cylinder.010"
		},
		{
			"mesh":23,
			"name":"Plane.029"
		},
		{
			"mesh":24,
			"name":"Cylinder.003"
		},
		{
			"mesh":25,
			"name":"Plane.002"
		},
		{
			"mesh":26,
			"name":"Cylinder.008"
		},
		{
			"mesh":27,
			"name":"Plane.020"
		},
		{
			"mesh":28,
			"name":"Plane.021"
		},
		{
			"mesh":29,
			"name":"Cylinder.005"
		},
		{
			"mesh":30,
			"name":"Cylinder.001"
		},
		{
			"mesh":31,
			"name":"Plane"
		},
		{
			"mesh":32,
			"name":"Plane.049"
		},
		{
			"mesh":33,
			"name":"Cylinder"
		},
		{
			"mesh":34,
			"name":"Circle.003"
		},
		{
			"mesh":35,
			"name":"Circle.001"
		},
		{
			"mesh":36,
			"name":"Plane.016"
		},
		{
			"mesh":37,
			"name":"Plane.026"
		},
		{
			"mesh":38,
			"name":"Plane.001"
		},
		{
			"mesh":39,
			"name":"Plane.004"
		},
		{
			"mesh":40,
			"name":"Plane.031"
		},
		{
			"mesh":41,
			"name":"Plane.036"
		},
		{
			"mesh":42,
			"name":"Plane.038"
		},
		{
			"mesh":43,
			"name":"Cylinder.002"
		},
		{
			"mesh":44,
			"name":"Circle.006"
		},
		{
			"mesh":45,
			"name":"Plane.017"
		},
		{
			"mesh":46,
			"name":"Plane.041"
		},
		{
			"mesh":47,
			"name":"Plane.022"
		},
		{
			"mesh":48,
			"name":"Plane.025"
		},
		{
			"mesh":49,
			"name":"Plane.006"
		},
		{
			"mesh":50,
			"name":"Plane.042"
		},
		{
			"mesh":51,
			"name":"Cylinder.007"
		},
		{
			"mesh":52,
			"name":"Plane.005"
		}
	],
	"materials":[
		{
			"doubleSided":true,
			"name":"Light.1001",
			"normalTexture":{
				"index":0
			},
			"pbrMetallicRoughness":{
				"baseColorTexture":{
					"index":1
				},
				"metallicFactor":0,
				"roughnessFactor":0.5
			}
		},
		{
			"doubleSided":true,
			"name":"Light.1001",
			"normalTexture":{
				"index":0
			},
			"pbrMetallicRoughness":{
				"baseColorTexture":{
					"index":1
				},
				"metallicFactor":0,
				"roughnessFactor":0.5
			}
		},
		{
			"doubleSided":true,
			"name":"Light.1001",
			"normalTexture":{
				"index":0
			},
			"pbrMetallicRoughness":{
				"baseColorTexture":{
					"index":1
				},
				"metallicFactor":0,
				"roughnessFactor":0.5
			}
		},
		{
			"doubleSided":true,
			"name":"Steel.1001",
			"normalTexture":{
				"index":2
			},
			"pbrMetallicRoughness":{
				"baseColorTexture":{
					"index":3
				},
				"metallicFactor":0,
				"roughnessFactor":0.5
			}
		},
		{
			"doubleSided":true,
			"name":"Light.1001",
			"normalTexture":{
				"index":0
			},
			"pbrMetallicRoughness":{
				"baseColorTexture":{
					"index":1
				},
				"metallicFactor":0,
				"roughnessFactor":0.5
			}
		},
		{
			"doubleSided":true,
			"name":"Light.1001",
			"normalTexture":{
				"index":0
			},
			"pbrMetallicRoughness":{
				"baseColorTexture":{
					"index":1
				},
				"metallicFactor":0,
				"roughnessFactor":0.5
			}
		},
		{
			"doubleSided":true,
			"name":"Light.1001",
			"normalTexture":{
				"index":0
			},
			"pbrMetallicRoughness":{
				"baseColorTexture":{
					"index":1
				},
				"metallicFactor":0,
				"roughnessFactor":0.5
			}
		},
		{
			"doubleSided":true,
			"name":"Steel.1001",
			"normalTexture":{
				"index":2
			},
			"pbrMetallicRoughness":{
				"baseColorTexture":{
					"index":3
				},
				"metallicFactor":0,
				"roughnessFactor":0.5
			}
		},
		{
			"doubleSided":true,
			"name":"Steel.1001",
			"normalTexture":{
				"index":2
			},
			"pbrMetallicRoughness":{
				"baseColorTexture":{
					"index":3
				},
				"metallicFactor":0,
				"roughnessFactor":0.5
			}
		},
		{
			"doubleSided":true,
			"name":"Steel.1001",
			"normalTexture":{
				"index":2
			},
			"pbrMetallicRoughness":{
				"baseColorTexture":{
					"index":3
				},
				"metallicFactor":0,
				"roughnessFactor":0.5
			}
		},
		{
			"doubleSided":true,
			"name":"Steel.1001",
			"normalTexture":{
				"index":2
			},
			"pbrMetallicRoughness":{
				"baseColorTexture":{
					"index":3
				},
				"metallicFactor":0,
				"roughnessFactor":0.5
			}
		},
		{
			"doubleSided":true,
			"name":"Steel.1001",
			"normalTexture":{
				"index":2
			},
			"pbrMetallicRoughness":{
				"baseColorTexture":{
					"index":3
				},
				"metallicFactor":0,
				"roughnessFactor":0.5
			}
		},
		{
			"doubleSided":true,
			"name":"Steel.1001",
			"normalTexture":{
				"index":2
			},
			"pbrMetallicRoughness":{
				"baseColorTexture":{
					"index":3
				},
				"metallicFactor":0,
				"roughnessFactor":0.5
			}
		},
		{
			"doubleSided":true,
			"name":"Light.1001",
			"normalTexture":{
				"index":0
			},
			"pbrMetallicRoughness":{
				"baseColorTexture":{
					"index":1
				},
				"metallicFactor":0,
				"roughnessFactor":0.5
			}
		},
		{
			"doubleSided":true,
			"name":"Light.1001",
			"normalTexture":{
				"index":0
			},
			"pbrMetallicRoughness":{
				"baseColorTexture":{
					"index":1
				},
				"metallicFactor":0,
				"roughnessFactor":0.5
			}
		},
		{
			"doubleSided":true,
			"name":"Light.1001",
			"normalTexture":{
				"index":0
			},
			"pbrMetallicRoughness":{
				"baseColorTexture":{
					"index":1
				},
				"metallicFactor":0,
				"roughnessFactor":0.5
			}
		},
		{
			"doubleSided":true,
			"name":"Steel.1001",
			"normalTexture":{
				"index":2
			},
			"pbrMetallicRoughness":{
				"baseColorTexture":{
					"index":3
				},
				"metallicFactor":0,
				"roughnessFactor":0.5
			}
		},
		{
			"doubleSided":true,
			"name":"Light.1001",
			"normalTexture":{
				"index":0
			},
			"pbrMetallicRoughness":{
				"baseColorTexture":{
					"index":1
				},
				"metallicFactor":0,
				"roughnessFactor":0.5
			}
		},
		{
			"doubleSided":true,
			"name":"Steel.1001",
			"normalTexture":{
				"index":2
			},
			"pbrMetallicRoughness":{
				"baseColorTexture":{
					"index":3
				},
				"metallicFactor":0,
				"roughnessFactor":0.5
			}
		},
		{
			"doubleSided":true,
			"name":"Light.1001",
			"normalTexture":{
				"index":0
			},
			"pbrMetallicRoughness":{
				"baseColorTexture":{
					"index":1
				},
				"metallicFactor":0,
				"roughnessFactor":0.5
			}
		},
		{
			"doubleSided":true,
			"name":"Material.1001",
			"normalTexture":{
				"index":4
			},
			"pbrMetallicRoughness":{
				"baseColorTexture":{
					"index":5
				},
				"metallicFactor":0,
				"roughnessFactor":0.5
			}
		},
		{
			"doubleSided":true,
			"name":"Steel.1001",
			"normalTexture":{
				"index":2
			},
			"pbrMetallicRoughness":{
				"baseColorTexture":{
					"index":3
				},
				"metallicFactor":0,
				"roughnessFactor":0.5
			}
		},
		{
			"doubleSided":true,
			"name":"Steel.1001",
			"normalTexture":{
				"index":2
			},
			"pbrMetallicRoughness":{
				"baseColorTexture":{
					"index":3
				},
				"metallicFactor":0,
				"roughnessFactor":0.5
			}
		},
		{
			"doubleSided":true,
			"name":"Light.1001",
			"normalTexture":{
				"index":0
			},
			"pbrMetallicRoughness":{
				"baseColorTexture":{
					"index":1
				},
				"metallicFactor":0,
				"roughnessFactor":0.5
			}
		},
		{
			"doubleSided":true,
			"name":"Light.1001",
			"normalTexture":{
				"index":0
			},
			"pbrMetallicRoughness":{
				"baseColorTexture":{
					"index":1
				},
				"metallicFactor":0,
				"roughnessFactor":0.5
			}
		},
		{
			"doubleSided":true,
			"name":"Light.1001",
			"normalTexture":{
				"index":0
			},
			"pbrMetallicRoughness":{
				"baseColorTexture":{
					"index":1
				},
				"metallicFactor":0,
				"roughnessFactor":0.5
			}
		},
		{
			"doubleSided":true,
			"name":"Light.1001",
			"normalTexture":{
				"index":0
			},
			"pbrMetallicRoughness":{
				"baseColorTexture":{
					"index":1
				},
				"metallicFactor":0,
				"roughnessFactor":0.5
			}
		},
		{
			"doubleSided":true,
			"name":"Steel.1001",
			"normalTexture":{
				"index":2
			},
			"pbrMetallicRoughness":{
				"baseColorTexture":{
					"index":3
				},
				"metallicFactor":0,
				"roughnessFactor":0.5
			}
		},
		{
			"doubleSided":true,
			"name":"Steel.1001",
			"normalTexture":{
				"index":2
			},
			"pbrMetallicRoughness":{
				"baseColorTexture":{
					"index":3
				},
				"metallicFactor":0,
				"roughnessFactor":0.5
			}
		},
		{
			"doubleSided":true,
			"name":"Light.1001",
			"normalTexture":{
				"index":0
			},
			"pbrMetallicRoughness":{
				"baseColorTexture":{
					"index":1
				},
				"metallicFactor":0,
				"roughnessFactor":0.5
			}
		},
		{
			"doubleSided":true,
			"name":"Light.1001",
			"normalTexture":{
				"index":0
			},
			"pbrMetallicRoughness":{
				"baseColorTexture":{
					"index":1
				},
				"metallicFactor":0,
				"roughnessFactor":0.5
			}
		},
		{
			"doubleSided":true,
			"name":"Light.1001",
			"normalTexture":{
				"index":0
			},
			"pbrMetallicRoughness":{
				"baseColorTexture":{
					"index":1
				},
				"metallicFactor":0,
				"roughnessFactor":0.5
			}
		},
		{
			"doubleSided":true,
			"name":"Light.1001",
			"normalTexture":{
				"index":0
			},
			"pbrMetallicRoughness":{
				"baseColorTexture":{
					"index":1
				},
				"metallicFactor":0,
				"roughnessFactor":0.5
			}
		},
		{
			"doubleSided":true,
			"name":"Steel.1001",
			"normalTexture":{
				"index":2
			},
			"pbrMetallicRoughness":{
				"baseColorTexture":{
					"index":3
				},
				"metallicFactor":0,
				"roughnessFactor":0.5
			}
		},
		{
			"doubleSided":true,
			"name":"Light.1001",
			"normalTexture":{
				"index":0
			},
			"pbrMetallicRoughness":{
				"baseColorTexture":{
					"index":1
				},
				"metallicFactor":0,
				"roughnessFactor":0.5
			}
		},
		{
			"doubleSided":true,
			"name":"Light.1001",
			"normalTexture":{
				"index":0
			},
			"pbrMetallicRoughness":{
				"baseColorTexture":{
					"index":1
				},
				"metallicFactor":0,
				"roughnessFactor":0.5
			}
		},
		{
			"doubleSided":true,
			"name":"Steel.1001",
			"normalTexture":{
				"index":2
			},
			"pbrMetallicRoughness":{
				"baseColorTexture":{
					"index":3
				},
				"metallicFactor":0,
				"roughnessFactor":0.5
			}
		},
		{
			"doubleSided":true,
			"name":"Steel.1001",
			"normalTexture":{
				"index":2
			},
			"pbrMetallicRoughness":{
				"baseColorTexture":{
					"index":3
				},
				"metallicFactor":0,
				"roughnessFactor":0.5
			}
		},
		{
			"doubleSided":true,
			"name":"Steel.1001",
			"normalTexture":{
				"index":2
			},
			"pbrMetallicRoughness":{
				"baseColorTexture":{
					"index":3
				},
				"metallicFactor":0,
				"roughnessFactor":0.5
			}
		},
		{
			"doubleSided":true,
			"name":"Material.1001",
			"normalTexture":{
				"index":4
			},
			"pbrMetallicRoughness":{
				"baseColorTexture":{
					"index":5
				},
				"metallicFactor":0,
				"roughnessFactor":0.5
			}
		},
		{
			"doubleSided":true,
			"name":"Material.1001",
			"normalTexture":{
				"index":4
			},
			"pbrMetallicRoughness":{
				"baseColorTexture":{
					"index":5
				},
				"metallicFactor":0,
				"roughnessFactor":0.5
			}
		},
		{
			"doubleSided":true,
			"name":"Steel.1001",
			"normalTexture":{
				"index":2
			},
			"pbrMetallicRoughness":{
				"baseColorTexture":{
					"index":3
				},
				"metallicFactor":0,
				"roughnessFactor":0.5
			}
		},
		{
			"doubleSided":true,
			"name":"Steel.1001",
			"normalTexture":{
				"index":2
			},
			"pbrMetallicRoughness":{
				"baseColorTexture":{
					"index":3
				},
				"metallicFactor":0,
				"roughnessFactor":0.5
			}
		},
		{
			"doubleSided":true,
			"name":"Light.1001",
			"normalTexture":{
				"index":0
			},
			"pbrMetallicRoughness":{
				"baseColorTexture":{
					"index":1
				},
				"metallicFactor":0,
				"roughnessFactor":0.5
			}
		},
		{
			"doubleSided":true,
			"name":"Light.1001",
			"normalTexture":{
				"index":0
			},
			"pbrMetallicRoughness":{
				"baseColorTexture":{
					"index":1
				},
				"metallicFactor":0,
				"roughnessFactor":0.5
			}
		},
		{
			"doubleSided":true,
			"name":"Light.1001",
			"normalTexture":{
				"index":0
			},
			"pbrMetallicRoughness":{
				"baseColorTexture":{
					"index":1
				},
				"metallicFactor":0,
				"roughnessFactor":0.5
			}
		},
		{
			"doubleSided":true,
			"name":"Steel.1001",
			"normalTexture":{
				"index":2
			},
			"pbrMetallicRoughness":{
				"baseColorTexture":{
					"index":3
				},
				"metallicFactor":0,
				"roughnessFactor":0.5
			}
		},
		{
			"doubleSided":true,
			"name":"Steel.1001",
			"normalTexture":{
				"index":2
			},
			"pbrMetallicRoughness":{
				"baseColorTexture":{
					"index":3
				},
				"metallicFactor":0,
				"roughnessFactor":0.5
			}
		},
		{
			"doubleSided":true,
			"name":"Steel.1001",
			"normalTexture":{
				"index":2
			},
			"pbrMetallicRoughness":{
				"baseColorTexture":{
					"index":3
				},
				"metallicFactor":0,
				"roughnessFactor":0.5
			}
		},
		{
			"doubleSided":true,
			"name":"Light.1001",
			"normalTexture":{
				"index":0
			},
			"pbrMetallicRoughness":{
				"baseColorTexture":{
					"index":1
				},
				"metallicFactor":0,
				"roughnessFactor":0.5
			}
		},
		{
			"doubleSided":true,
			"name":"Steel.1001",
			"normalTexture":{
				"index":2
			},
			"pbrMetallicRoughness":{
				"baseColorTexture":{
					"index":3
				},
				"metallicFactor":0,
				"roughnessFactor":0.5
			}
		},
		{
			"doubleSided":true,
			"name":"Light.1001",
			"normalTexture":{
				"index":0
			},
			"pbrMetallicRoughness":{
				"baseColorTexture":{
					"index":1
				},
				"metallicFactor":0,
				"roughnessFactor":0.5
			}
		},
		{
			"doubleSided":true,
			"name":"Light.1001",
			"normalTexture":{
				"index":0
			},
			"pbrMetallicRoughness":{
				"baseColorTexture":{
					"index":1
				},
				"metallicFactor":0,
				"roughnessFactor":0.5
			}
		}
	],
	"meshes":[
		{
			"name":"Plane.023",
			"primitives":[
				{
					"attributes":{
						"POSITION":0,
						"NORMAL":1,
						"TEXCOORD_0":2
					},
					"indices":3,
					"material":0
				}
			]
		},
		{
			"name":"Cylinder.004",
			"primitives":[
				{
					"attributes":{
						"POSITION":4,
						"NORMAL":5,
						"TEXCOORD_0":6
					},
					"indices":7,
					"material":1
				}
			]
		},
		{
			"name":"Plane.007",
			"primitives":[
				{
					"attributes":{
						"POSITION":8,
						"NORMAL":9,
						"TEXCOORD_0":10
					},
					"indices":11,
					"material":2
				}
			]
		},
		{
			"name":"Plane.025",
			"primitives":[
				{
					"attributes":{
						"POSITION":12,
						"NORMAL":13,
						"TEXCOORD_0":14
					},
					"indices":15,
					"material":3
				}
			]
		},
		{
			"name":"Circle.009",
			"primitives":[
				{
					"attributes":{
						"POSITION":16,
						"NORMAL":17,
						"TEXCOORD_0":18
					},
					"indices":19,
					"material":4
				}
			]
		},
		{
			"name":"Cylinder.006",
			"primitives":[
				{
					"attributes":{
						"POSITION":20,
						"NORMAL":21,
						"TEXCOORD_0":22
					},
					"indices":23,
					"material":5
				}
			]
		},
		{
			"name":"Plane.001",
			"primitives":[
				{
					"attributes":{
						"POSITION":24,
						"NORMAL":25,
						"TEXCOORD_0":26
					},
					"indices":27,
					"material":6
				}
			]
		},
		{
			"name":"Plane.002",
			"primitives":[
				{
					"attributes":{
						"POSITION":28,
						"NORMAL":29,
						"TEXCOORD_0":30
					},
					"indices":31,
					"material":7
				}
			]
		},
		{
			"name":"Plane.040",
			"primitives":[
				{
					"attributes":{
						"POSITION":32,
						"NORMAL":33,
						"TEXCOORD_0":34
					},
					"indices":35,
					"material":8
				}
			]
		},
		{
			"name":"Plane.003",
			"primitives":[
				{
					"attributes":{
						"POSITION":36,
						"NORMAL":37,
						"TEXCOORD_0":38
					},
					"indices":39,
					"material":9
				}
			]
		},
		{
			"name":"Plane.010",
			"primitives":[
				{
					"attributes":{
						"POSITION":40,
						"NORMAL":41,
						"TEXCOORD_0":42
					},
					"indices":43,
					"material":10
				}
			]
		},
		{
			"name":"Plane.015",
			"primitives":[
				{
					"attributes":{
						"POSITION":44,
						"NORMAL":45,
						"TEXCOORD_0":46
					},
					"indices":47,
					"material":11
				}
			]
		},
		{
			"name":"Plane.014",
			"primitives":[
				{
					"attributes":{
						"POSITION":48,
						"NORMAL":49,
						"TEXCOORD_0":50
					},
					"indices":51,
					"material":12
				}
			]
		},
		{
			"name":"Plane.037",
			"primitives":[
				{
					"attributes":{
						"POSITION":52,
						"NORMAL":53,
						"TEXCOORD_0":54
					},
					"indices":55,
					"material":13
				}
			]
		},
		{
			"name":"Cylinder.009",
			"primitives":[
				{
					"attributes":{
						"POSITION":56,
						"NORMAL":57,
						"TEXCOORD_0":58
					},
					"indices":59,
					"material":14
				}
			]
		},
		{
			"name":"Circle.007",
			"primitives":[
				{
					"attributes":{
						"POSITION":60,
						"NORMAL":61,
						"TEXCOORD_0":62
					},
					"indices":63,
					"material":15
				}
			]
		},
		{
			"name":"Plane.011",
			"primitives":[
				{
					"attributes":{
						"POSITION":64,
						"NORMAL":65,
						"TEXCOORD_0":66
					},
					"indices":31,
					"material":16
				}
			]
		},
		{
			"name":"Plane.005",
			"primitives":[
				{
					"attributes":{
						"POSITION":67,
						"NORMAL":68,
						"TEXCOORD_0":69
					},
					"indices":70,
					"material":17
				}
			]
		},
		{
			"name":"Plane.028",
			"primitives":[
				{
					"attributes":{
						"POSITION":71,
						"NORMAL":72,
						"TEXCOORD_0":73
					},
					"indices":15,
					"material":18
				}
			]
		},
		{
			"name":"Plane.013",
			"primitives":[
				{
					"attributes":{
						"POSITION":74,
						"NORMAL":75,
						"TEXCOORD_0":76
					},
					"indices":77,
					"material":19
				}
			]
		},
		{
			"name":"Plane.018",
			"primitives":[
				{
					"attributes":{
						"POSITION":78,
						"NORMAL":79,
						"TEXCOORD_0":80
					},
					"indices":81,
					"material":20
				}
			]
		},
		{
			"name":"Plane.012",
			"primitives":[
				{
					"attributes":{
						"POSITION":82,
						"NORMAL":83,
						"TEXCOORD_0":84
					},
					"indices":85,
					"material":21
				}
			]
		},
		{
			"name":"Cylinder.010",
			"primitives":[
				{
					"attributes":{
						"POSITION":86,
						"NORMAL":87,
						"TEXCOORD_0":88
					},
					"indices":89,
					"material":22
				}
			]
		},
		{
			"name":"Plane.034",
			"primitives":[
				{
					"attributes":{
						"POSITION":90,
						"NORMAL":91,
						"TEXCOORD_0":92
					},
					"indices":93,
					"material":23
				}
			]
		},
		{
			"name":"Cylinder.003",
			"primitives":[
				{
					"attributes":{
						"POSITION":94,
						"NORMAL":95,
						"TEXCOORD_0":96
					},
					"indices":97,
					"material":24
				}
			]
		},
		{
			"name":"Plane.038",
			"primitives":[
				{
					"attributes":{
						"POSITION":98,
						"NORMAL":99,
						"TEXCOORD_0":100
					},
					"indices":101,
					"material":25
				}
			]
		},
		{
			"name":"Cylinder.011",
			"primitives":[
				{
					"attributes":{
						"POSITION":102,
						"NORMAL":103,
						"TEXCOORD_0":104
					},
					"indices":105,
					"material":26
				}
			]
		},
		{
			"name":"Plane.016",
			"primitives":[
				{
					"attributes":{
						"POSITION":106,
						"NORMAL":107,
						"TEXCOORD_0":108
					},
					"indices":39,
					"material":27
				}
			]
		},
		{
			"name":"Plane.026",
			"primitives":[
				{
					"attributes":{
						"POSITION":109,
						"NORMAL":110,
						"TEXCOORD_0":111
					},
					"indices":15,
					"material":28
				}
			]
		},
		{
			"name":"Cylinder.013",
			"primitives":[
				{
					"attributes":{
						"POSITION":112,
						"NORMAL":113,
						"TEXCOORD_0":114
					},
					"indices":115,
					"material":29
				}
			]
		},
		{
			"name":"Cylinder.001",
			"primitives":[
				{
					"attributes":{
						"POSITION":116,
						"NORMAL":117,
						"TEXCOORD_0":118
					},
					"indices":119,
					"material":30
				}
			]
		},
		{
			"name":"Plane",
			"primitives":[
				{
					"attributes":{
						"POSITION":120,
						"NORMAL":121,
						"TEXCOORD_0":122
					},
					"indices":123,
					"material":31
				}
			]
		},
		{
			"name":"Plane.008",
			"primitives":[
				{
					"attributes":{
						"POSITION":124,
						"NORMAL":125,
						"TEXCOORD_0":126
					},
					"indices":77,
					"material":32
				}
			]
		},
		{
			"name":"Cylinder",
			"primitives":[
				{
					"attributes":{
						"POSITION":127,
						"NORMAL":128,
						"TEXCOORD_0":129
					},
					"indices":130,
					"material":33
				}
			]
		},
		{
			"name":"Circle.006",
			"primitives":[
				{
					"attributes":{
						"POSITION":131,
						"NORMAL":132,
						"TEXCOORD_0":133
					},
					"indices":134,
					"material":34
				}
			]
		},
		{
			"name":"Circle.004",
			"primitives":[
				{
					"attributes":{
						"POSITION":135,
						"NORMAL":136,
						"TEXCOORD_0":137
					},
					"indices":138,
					"material":35
				}
			]
		},
		{
			"name":"Plane.039",
			"primitives":[
				{
					"attributes":{
						"POSITION":139,
						"NORMAL":140,
						"TEXCOORD_0":141
					},
					"indices":142,
					"material":36
				}
			]
		},
		{
			"name":"Plane.020",
			"primitives":[
				{
					"attributes":{
						"POSITION":143,
						"NORMAL":144,
						"TEXCOORD_0":145
					},
					"indices":39,
					"material":37
				}
			]
		},
		{
			"name":"Plane.036",
			"primitives":[
				{
					"attributes":{
						"POSITION":146,
						"NORMAL":147,
						"TEXCOORD_0":148
					},
					"indices":149,
					"material":38
				}
			]
		},
		{
			"name":"Plane.004",
			"primitives":[
				{
					"attributes":{
						"POSITION":150,
						"NORMAL":151,
						"TEXCOORD_0":152
					},
					"indices":153,
					"material":39
				}
			]
		},
		{
			"name":"Plane.031",
			"primitives":[
				{
					"attributes":{
						"POSITION":154,
						"NORMAL":155,
						"TEXCOORD_0":156
					},
					"indices":157,
					"material":40
				}
			]
		},
		{
			"name":"Plane.019",
			"primitives":[
				{
					"attributes":{
						"POSITION":158,
						"NORMAL":159,
						"TEXCOORD_0":160
					},
					"indices":161,
					"material":41
				}
			]
		},
		{
			"name":"Plane.024",
			"primitives":[
				{
					"attributes":{
						"POSITION":162,
						"NORMAL":163,
						"TEXCOORD_0":164
					},
					"indices":165,
					"material":42
				}
			]
		},
		{
			"name":"Cylinder.012",
			"primitives":[
				{
					"attributes":{
						"POSITION":166,
						"NORMAL":167,
						"TEXCOORD_0":168
					},
					"indices":169,
					"material":43
				}
			]
		},
		{
			"name":"Circle.001",
			"primitives":[
				{
					"attributes":{
						"POSITION":170,
						"NORMAL":171,
						"TEXCOORD_0":172
					},
					"indices":173,
					"material":44
				}
			]
		},
		{
			"name":"Plane.017",
			"primitives":[
				{
					"attributes":{
						"POSITION":174,
						"NORMAL":175,
						"TEXCOORD_0":176
					},
					"indices":177,
					"material":45
				}
			]
		},
		{
			"name":"Plane.030",
			"primitives":[
				{
					"attributes":{
						"POSITION":178,
						"NORMAL":179,
						"TEXCOORD_0":180
					},
					"indices":15,
					"material":46
				}
			]
		},
		{
			"name":"Plane.027",
			"primitives":[
				{
					"attributes":{
						"POSITION":181,
						"NORMAL":182,
						"TEXCOORD_0":183
					},
					"indices":15,
					"material":47
				}
			]
		},
		{
			"name":"Plane.009",
			"primitives":[
				{
					"attributes":{
						"POSITION":184,
						"NORMAL":185,
						"TEXCOORD_0":186
					},
					"indices":39,
					"material":48
				}
			]
		},
		{
			"name":"Plane.006",
			"primitives":[
				{
					"attributes":{
						"POSITION":187,
						"NORMAL":188,
						"TEXCOORD_0":189
					},
					"indices":190,
					"material":49
				}
			]
		},
		{
			"name":"Plane.032",
			"primitives":[
				{
					"attributes":{
						"POSITION":191,
						"NORMAL":192,
						"TEXCOORD_0":193
					},
					"indices":15,
					"material":50
				}
			]
		},
		{
			"name":"Cylinder.007",
			"primitives":[
				{
					"attributes":{
						"POSITION":194,
						"NORMAL":195,
						"TEXCOORD_0":196
					},
					"indices":197,
					"material":51
				}
			]
		},
		{
			"name":"Plane.021",
			"primitives":[
				{
					"attributes":{
						"POSITION":198,
						"NORMAL":199,
						"TEXCOORD_0":200
					},
					"indices":201,
					"material":52
				}
			]
		}
	],
	"textures":[
		{
			"sampler":0,
			"source":0
		},
		{
			"sampler":0,
			"source":1
		},
		{
			"sampler":0,
			"source":2
		},
		{
			"sampler":0,
			"source":3
		},
		{
			"sampler":0,
			"source":4
		},
		{
			"sampler":0,
			"source":5
		}
	],
	"images":[
		{
			"mimeType":"image/png",
			"name":"T_SCARLHP_Light_Normal.1001",
			"uri":"textures/T_SCARLHP_Light_Normal.1001.png"
		},
		{
			"mimeType":"image/png",
			"name":"T_SCARLHP_Light_BaseColor.1001",
			"uri":"textures/T_SCARLHP_Light_BaseColor.1001.png"
		},
		{
			"mimeType":"image/png",
			"name":"T_SCARLHP_Steel_Normal.1001",
			"uri":"textures/T_SCARLHP_Steel_Normal.1001.png"
		},
		{
			"mimeType":"image/png",
			"name":"T_SCARLHP_Steel_BaseColor.1001",
			"uri":"textures/T_SCARLHP_Steel_BaseColor.1001.png"
		},
		{
			"mimeType":"image/png",
			"name":"T_SCARLHP_Material_Normal.1001",
			"uri":"textures/T_SCARLHP_Material_Normal.1001.png"
		},
		{
			"mimeType":"image/png",
			"name":"T_SCARLHP_Material_BaseColor.1001",
			"uri":"textures/T_SCARLHP_Material_BaseColor.1001.png"
		}
	],
	"accessors":[
		{
			"bufferView":0,
			"componentType":5126,
			"count":6854,
			"max":[
				-0.18207967281341553,
				0.3307732939720154,
				0.36773431301116943
			],
			"min":[
				-1.518912434577942,
				0.26648420095443726,
				0.20984140038490295
			],
			"type":"VEC3"
		},
		{
			"bufferView":1,
			"componentType":5126,
			"count":6854,
			"type":"VEC3"
		},
		{
			"bufferView":2,
			"componentType":5126,
			"count":6854,
			"type":"VEC2"
		},
		{
			"bufferView":3,
			"componentType":5123,
			"count":20976,
			"type":"SCALAR"
		},
		{
			"bufferView":4,
			"componentType":5126,
			"count":1233,
			"max":[
				0.7813194394111633,
				0.6355010271072388,
				0.3120979070663452
			],
			"min":[
				0.7346996665000916,
				0.6245230436325073,
				0.26547807455062866
			],
			"type":"VEC3"
		},
		{
			"bufferView":5,
			"componentType":5126,
			"count":1233,
			"type":"VEC3"
		},
		{
			"bufferView":6,
			"componentType":5126,
			"count":1233,
			"type":"VEC2"
		},
		{
			"bufferView":7,
			"componentType":5123,
			"count":6720,
			"type":"SCALAR"
		},
		{
			"bufferView":8,
			"componentType":5126,
			"count":62395,
			"max":[
				0.9026510715484619,
				0.5688462257385254,
				0.3758576810359955
			],
			"min":[
				0.8342368602752686,
				0.49142658710479736,
				0.20171809196472168
			],
			"type":"VEC3"
		},
		{
			"bufferView":9,
			"componentType":5126,
			"count":62395,
			"type":"VEC3"
		},
		{
			"bufferView":10,
			"componentType":5126,
			"count":62395,
			"type":"VEC2"
		},
		{
			"bufferView":11,
			"componentType":5123,
			"count":98016,
			"type":"SCALAR"
		},
		{
			"bufferView":12,
			"componentType":5126,
			"count":2854,
			"max":[
				-1.4487371444702148,
				0.5094518065452576,
				0.34021487832069397
			],
			"min":[
				-1.4779915809631348,
				0.48007771372795105,
				0.2373610883951187
			],
			"type":"VEC3"
		},
		{
			"bufferView":13,
			"componentType":5126,
			"count":2854,
			"type":"VEC3"
		},
		{
			"bufferView":14,
			"componentType":5126,
			"count":2854,
			"type":"VEC2"
		},
		{
			"bufferView":15,
			"componentType":5123,
			"count":15264,
			"type":"SCALAR"
		},
		{
			"bufferView":16,
			"componentType":5126,
			"count":13812,
			"max":[
				0.797193169593811,
				0.6372438073158264,
				0.3741428852081299
			],
			"min":[
				0.7188163995742798,
				0.5581607222557068,
				0.20343303680419922
			],
			"type":"VEC3"
		},
		{
			"bufferView":17,
			"componentType":5126,
			"count":13812,
			"type":"VEC3"
		},
		{
			"bufferView":18,
			"componentType":5126,
			"count":13812,
			"type":"VEC2"
		},
		{
			"bufferView":19,
			"componentType":5123,
			"count":77184,
			"type":"SCALAR"
		},
		{
			"bufferView":20,
			"componentType":5126,
			"count":4179,
			"max":[
				0.7813194394111633,
				0.7325881719589233,
				0.3120979070663452
			],
			"min":[
				0.7346996665000916,
				0.6598190069198608,
				0.26547807455062866
			],
			"type":"VEC3"
		},
		{
			"bufferView":21,
			"componentType":5126,
			"count":4179,
			"type":"VEC3"
		},
		{
			"bufferView":22,
			"componentType":5126,
			"count":4179,
			"type":"VEC2"
		},
		{
			"bufferView":23,
			"componentType":5123,
			"count":22788,
			"type":"SCALAR"
		},
		{
			"bufferView":24,
			"componentType":5126,
			"count":3741,
			"max":[
				0.4023376703262329,
				0.40155017375946045,
				0.4218616187572479
			],
			"min":[
				0.2984393537044525,
				0.34409549832344055,
				0.34787264466285706
			],
			"type":"VEC3"
		},
		{
			"bufferView":25,
			"componentType":5126,
			"count":3741,
			"type":"VEC3"
		},
		{
			"bufferView":26,
			"componentType":5126,
			"count":3741,
			"type":"VEC2"
		},
		{
			"bufferView":27,
			"componentType":5123,
			"count":20592,
			"type":"SCALAR"
		},
		{
			"bufferView":28,
			"componentType":5126,
			"count":1955,
			"max":[
				-1.4758411645889282,
				0.27882981300354004,
				0.3012602627277374
			],
			"min":[
				-1.500684142112732,
				0.2669691741466522,
				0.27631571888923645
			],
			"type":"VEC3"
		},
		{
			"bufferView":29,
			"componentType":5126,
			"count":1955,
			"type":"VEC3"
		},
		{
			"bufferView":30,
			"componentType":5126,
			"count":1955,
			"type":"VEC2"
		},
		{
			"bufferView":31,
			"componentType":5123,
			"count":10512,
			"type":"SCALAR"
		},
		{
			"bufferView":32,
			"componentType":5126,
			"count":752,
			"max":[
				1.7354880571365356,
				0.13856521248817444,
				0.35674387216567993
			],
			"min":[
				1.7112643718719482,
				0.11434154212474823,
				0.22083210945129395
			],
			"type":"VEC3"
		},
		{
			"bufferView":33,
			"componentType":5126,
			"count":752,
			"type":"VEC3"
		},
		{
			"bufferView":34,
			"componentType":5126,
			"count":752,
			"type":"VEC2"
		},
		{
			"bufferView":35,
			"componentType":5123,
			"count":3840,
			"type":"SCALAR"
		},
		{
			"bufferView":36,
			"componentType":5126,
			"count":1427,
			"max":[
				0.7272446155548096,
				0.3999903202056885,
				0.22525598108768463
			],
			"min":[
				0.6979901790618896,
				0.37061625719070435,
				0.2096237987279892
			],
			"type":"VEC3"
		},
		{
			"bufferView":37,
			"componentType":5126,
			"count":1427,
			"type":"VEC3"
		},
		{
			"bufferView":38,
			"componentType":5126,
			"count":1427,
			"type":"VEC2"
		},
		{
			"bufferView":39,
			"componentType":5123,
			"count":7632,
			"type":"SCALAR"
		},
		{
			"bufferView":40,
			"componentType":5126,
			"count":5714,
			"max":[
				1.6876661777496338,
				0.49701127409935,
				0.401919960975647
			],
			"min":[
				0.9917674660682678,
				0.2807501554489136,
				0.17565608024597168
			],
			"type":"VEC3"
		},
		{
			"bufferView":41,
			"componentType":5126,
			"count":5714,
			"type":"VEC3"
		},
		{
			"bufferView":42,
			"componentType":5126,
			"count":5714,
			"type":"VEC2"
		},
		{
			"bufferView":43,
			"componentType":5123,
			"count":30432,
			"type":"SCALAR"
		},
		{
			"bufferView":44,
			"componentType":5126,
			"count":9266,
			"max":[
				1.748892903327942,
				0.270366907119751,
				0.3065027892589569
			],
			"min":[
				1.5589009523391724,
				0.04388662427663803,
				0.27107319235801697
			],
			"type":"VEC3"
		},
		{
			"bufferView":45,
			"componentType":5126,
			"count":9266,
			"type":"VEC3"
		},
		{
			"bufferView":46,
			"componentType":5126,
			"count":9266,
			"type":"VEC2"
		},
		{
			"bufferView":47,
			"componentType":5123,
			"count":53760,
			"type":"SCALAR"
		},
		{
			"bufferView":48,
			"componentType":5126,
			"count":21871,
			"max":[
				1.8264671564102173,
				0.43508800864219666,
				0.3727700114250183
			],
			"min":[
				1.6906955242156982,
				-0.17984500527381897,
				0.20480595529079437
			],
			"type":"VEC3"
		},
		{
			"bufferView":49,
			"componentType":5126,
			"count":21871,
			"type":"VEC3"
		},
		{
			"bufferView":50,
			"componentType":5126,
			"count":21871,
			"type":"VEC2"
		},
		{
			"bufferView":51,
			"componentType":5123,
			"count":91524,
			"type":"SCALAR"
		},
		{
			"bufferView":52,
			"componentType":5126,
			"count":25104,
			"max":[
				-0.0942523330450058,
				0.40698784589767456,
				0.3953242599964142
			],
			"min":[
				-0.478241503238678,
				0.3412899672985077,
				0.18225158751010895
			],
			"type":"VEC3"
		},
		{
			"bufferView":53,
			"componentType":5126,
			"count":25104,
			"type":"VEC3"
		},
		{
			"bufferView":54,
			"componentType":5126,
			"count":25104,
			"type":"VEC2"
		},
		{
			"bufferView":55,
			"componentType":5123,
			"count":133056,
			"type":"SCALAR"
		},
		{
			"bufferView":56,
			"componentType":5126,
			"count":1508,
			"max":[
				-1.3761709928512573,
				0.729244589805603,
				0.32045912742614746
			],
			"min":[
				-1.4180570840835571,
				0.5802013874053955,
				0.25711679458618164
			],
			"type":"VEC3"
		},
		{
			"bufferView":57,
			"componentType":5126,
			"count":1508,
			"type":"VEC3"
		},
		{
			"bufferView":58,
			"componentType":5126,
			"count":1508,
			"type":"VEC2"
		},
		{
			"bufferView":59,
			"componentType":5123,
			"count":7680,
			"type":"SCALAR"
		},
		{
			"bufferView":60,
			"componentType":5126,
			"count":5768,
			"max":[
				0.5908492207527161,
				0.26642507314682007,
				0.38179633021354675
			],
			"min":[
				0.4995277523994446,
				0.21190188825130463,
				0.19577965140342712
			],
			"type":"VEC3"
		},
		{
			"bufferView":61,
			"componentType":5126,
			"count":5768,
			"type":"VEC3"
		},
		{
			"bufferView":62,
			"componentType":5126,
			"count":5768,
			"type":"VEC2"
		},
		{
			"bufferView":63,
			"componentType":5123,
			"count":31992,
			"type":"SCALAR"
		},
		{
			"bufferView":64,
			"componentType":5126,
			"count":1955,
			"max":[
				-0.19997668266296387,
				0.27882981300354004,
				0.3012602627277374
			],
			"min":[
				-0.22481968998908997,
				0.2669691741466522,
				0.27631571888923645
			],
			"type":"VEC3"
		},
		{
			"bufferView":65,
			"componentType":5126,
			"count":1955,
			"type":"VEC3"
		},
		{
			"bufferView":66,
			"componentType":5126,
			"count":1955,
			"type":"VEC2"
		},
		{
			"bufferView":67,
			"componentType":5126,
			"count":10498,
			"max":[
				0.8464460372924805,
				0.5026300549507141,
				0.4081580638885498
			],
			"min":[
				0.8125522136688232,
				0.19226595759391785,
				0.20043940842151642
			],
			"type":"VEC3"
		},
		{
			"bufferView":68,
			"componentType":5126,
			"count":10498,
			"type":"VEC3"
		},
		{
			"bufferView":69,
			"componentType":5126,
			"count":10498,
			"type":"VEC2"
		},
		{
			"bufferView":70,
			"componentType":5123,
			"count":56568,
			"type":"SCALAR"
		},
		{
			"bufferView":71,
			"componentType":5126,
			"count":2854,
			"max":[
				-1.4113192558288574,
				0.3885250687599182,
				0.3934732973575592
			],
			"min":[
				-1.4405736923217773,
				0.3591509759426117,
				0.18410266935825348
			],
			"type":"VEC3"
		},
		{
			"bufferView":72,
			"componentType":5126,
			"count":2854,
			"type":"VEC3"
		},
		{
			"bufferView":73,
			"componentType":5126,
			"count":2854,
			"type":"VEC2"
		},
		{
			"bufferView":74,
			"componentType":5126,
			"count":19844,
			"max":[
				0.7923239469528198,
				0.6353353261947632,
				0.33864134550094604
			],
			"min":[
				0.6418272256851196,
				0.5452339053153992,
				0.23893466591835022
			],
			"type":"VEC3"
		},
		{
			"bufferView":75,
			"componentType":5126,
			"count":19844,
			"type":"VEC3"
		},
		{
			"bufferView":76,
			"componentType":5126,
			"count":19844,
			"type":"VEC2"
		},
		{
			"bufferView":77,
			"componentType":5123,
			"count":113376,
			"type":"SCALAR"
		},
		{
			"bufferView":78,
			"componentType":5126,
			"count":71995,
			"max":[
				0.8342369794845581,
				0.5450825095176697,
				0.36732739210128784
			],
			"min":[
				-1.5189123153686523,
				0.32650309801101685,
				0.21024858951568604
			],
			"type":"VEC3"
		},
		{
			"bufferView":79,
			"componentType":5126,
			"count":71995,
			"type":"VEC3"
		},
		{
			"bufferView":80,
			"componentType":5126,
			"count":71995,
			"type":"VEC2"
		},
		{
			"bufferView":81,
			"componentType":5125,
			"count":408798,
			"type":"SCALAR"
		},
		{
			"bufferView":82,
			"componentType":5126,
			"count":2482,
			"max":[
				1.5408717393875122,
				0.2981720566749573,
				0.2548995912075043
			],
			"min":[
				1.3494117259979248,
				0.0447065532207489,
				0.22179719805717468
			],
			"type":"VEC3"
		},
		{
			"bufferView":83,
			"componentType":5126,
			"count":2482,
			"type":"VEC3"
		},
		{
			"bufferView":84,
			"componentType":5126,
			"count":2482,
			"type":"VEC2"
		},
		{
			"bufferView":85,
			"componentType":5123,
			"count":12096,
			"type":"SCALAR"
		},
		{
			"bufferView":86,
			"componentType":5126,
			"count":22471,
			"max":[
				-0.8930054306983948,
				0.5041458606719971,
				0.33979174494743347
			],
			"min":[
				-1.0913819074630737,
				0.3225783109664917,
				0.23778405785560608
			],
			"type":"VEC3"
		},
		{
			"bufferView":87,
			"componentType":5126,
			"count":22471,
			"type":"VEC3"
		},
		{
			"bufferView":88,
			"componentType":5126,
			"count":22471,
			"type":"VEC2"
		},
		{
			"bufferView":89,
			"componentType":5123,
			"count":123351,
			"type":"SCALAR"
		},
		{
			"bufferView":90,
			"componentType":5126,
			"count":9916,
			"max":[
				-0.6809687614440918,
				0.4164913296699524,
				0.40686535835266113
			],
			"min":[
				-1.5189123153686523,
				0.32587817311286926,
				0.17071063816547394
			],
			"type":"VEC3"
		},
		{
			"bufferView":91,
			"componentType":5126,
			"count":9916,
			"type":"VEC3"
		},
		{
			"bufferView":92,
			"componentType":5126,
			"count":9916,
			"type":"VEC2"
		},
		{
			"bufferView":93,
			"componentType":5123,
			"count":31848,
			"type":"SCALAR"
		},
		{
			"bufferView":94,
			"componentType":5126,
			"count":2496,
			"max":[
				0.7813194394111633,
				0.6245625615119934,
				0.3120979070663452
			],
			"min":[
				0.7346996665000916,
				0.5799624919891357,
				0.26547807455062866
			],
			"type":"VEC3"
		},
		{
			"bufferView":95,
			"componentType":5126,
			"count":2496,
			"type":"VEC3"
		},
		{
			"bufferView":96,
			"componentType":5126,
			"count":2496,
			"type":"VEC2"
		},
		{
			"bufferView":97,
			"componentType":5123,
			"count":14016,
			"type":"SCALAR"
		},
		{
			"bufferView":98,
			"componentType":5126,
			"count":11430,
			"max":[
				0.8334939479827881,
				0.5692533850669861,
				0.3354177474975586
			],
			"min":[
				-1.5189123153686523,
				0.5177642703056335,
				0.242157980799675
			],
			"type":"VEC3"
		},
		{
			"bufferView":99,
			"componentType":5126,
			"count":11430,
			"type":"VEC3"
		},
		{
			"bufferView":100,
			"componentType":5126,
			"count":11430,
			"type":"VEC2"
		},
		{
			"bufferView":101,
			"componentType":5123,
			"count":34200,
			"type":"SCALAR"
		},
		{
			"bufferView":102,
			"componentType":5126,
			"count":2108,
			"max":[
				-1.3895952701568604,
				0.6049489974975586,
				0.32831665873527527
			],
			"min":[
				-1.4040887355804443,
				0.5904556512832642,
				0.2513194680213928
			],
			"type":"VEC3"
		},
		{
			"bufferView":103,
			"componentType":5126,
			"count":2108,
			"type":"VEC3"
		},
		{
			"bufferView":104,
			"componentType":5126,
			"count":2108,
			"type":"VEC2"
		},
		{
			"bufferView":105,
			"componentType":5123,
			"count":8064,
			"type":"SCALAR"
		},
		{
			"bufferView":106,
			"componentType":5126,
			"count":1427,
			"max":[
				0.4361104965209961,
				0.3909663259983063,
				0.368125319480896
			],
			"min":[
				0.40685606002807617,
				0.36159226298332214,
				0.35249316692352295
			],
			"type":"VEC3"
		},
		{
			"bufferView":107,
			"componentType":5126,
			"count":1427,
			"type":"VEC3"
		},
		{
			"bufferView":108,
			"componentType":5126,
			"count":1427,
			"type":"VEC2"
		},
		{
			"bufferView":109,
			"componentType":5126,
			"count":2854,
			"max":[
				0.7732313275337219,
				0.3909663259983063,
				0.368125319480896
			],
			"min":[
				0.7439766526222229,
				0.36159223318099976,
				0.20945046842098236
			],
			"type":"VEC3"
		},
		{
			"bufferView":110,
			"componentType":5126,
			"count":2854,
			"type":"VEC3"
		},
		{
			"bufferView":111,
			"componentType":5126,
			"count":2854,
			"type":"VEC2"
		},
		{
			"bufferView":112,
			"componentType":5126,
			"count":4320,
			"max":[
				0.7810574769973755,
				0.6595845222473145,
				0.311835914850235
			],
			"min":[
				0.7349616289138794,
				0.6353381872177124,
				0.2657400369644165
			],
			"type":"VEC3"
		},
		{
			"bufferView":113,
			"componentType":5126,
			"count":4320,
			"type":"VEC3"
		},
		{
			"bufferView":114,
			"componentType":5126,
			"count":4320,
			"type":"VEC2"
		},
		{
			"bufferView":115,
			"componentType":5123,
			"count":12522,
			"type":"SCALAR"
		},
		{
			"bufferView":116,
			"componentType":5126,
			"count":1772,
			"max":[
				1.6571990251541138,
				0.1864767223596573,
				0.25331369042396545
			],
			"min":[
				1.5701979398727417,
				0.09947548806667328,
				0.23891745507717133
			],
			"type":"VEC3"
		},
		{
			"bufferView":117,
			"componentType":5126,
			"count":1772,
			"type":"VEC3"
		},
		{
			"bufferView":118,
			"componentType":5126,
			"count":1772,
			"type":"VEC2"
		},
		{
			"bufferView":119,
			"componentType":5123,
			"count":9504,
			"type":"SCALAR"
		},
		{
			"bufferView":120,
			"componentType":5126,
			"count":6645,
			"max":[
				-1.5042951107025146,
				0.5450440645217896,
				0.38269221782684326
			],
			"min":[
				-1.5189123153686523,
				0.4017568528652191,
				0.19488376379013062
			],
			"type":"VEC3"
		},
		{
			"bufferView":121,
			"componentType":5126,
			"count":6645,
			"type":"VEC3"
		},
		{
			"bufferView":122,
			"componentType":5126,
			"count":6645,
			"type":"VEC2"
		},
		{
			"bufferView":123,
			"componentType":5123,
			"count":35448,
			"type":"SCALAR"
		},
		{
			"bufferView":124,
			"componentType":5126,
			"count":19844,
			"max":[
				-1.3577988147735596,
				0.6353353261947632,
				0.33864134550094604
			],
			"min":[
				-1.5082955360412598,
				0.5452339053153992,
				0.23893466591835022
			],
			"type":"VEC3"
		},
		{
			"bufferView":125,
			"componentType":5126,
			"count":19844,
			"type":"VEC3"
		},
		{
			"bufferView":126,
			"componentType":5126,
			"count":19844,
			"type":"VEC2"
		},
		{
			"bufferView":127,
			"componentType":5126,
			"count":38912,
			"max":[
				-0.693071186542511,
				0.417250394821167,
				0.33245614171028137
			],
			"min":[
				-2.003814697265625,
				0.3299139142036438,
				0.24511967599391937
			],
			"type":"VEC3"
		},
		{
			"bufferView":128,
			"componentType":5126,
			"count":38912,
			"type":"VEC3"
		},
		{
			"bufferView":129,
			"componentType":5126,
			"count":38912,
			"type":"VEC2"
		},
		{
			"bufferView":130,
			"componentType":5123,
			"count":222240,
			"type":"SCALAR"
		},
		{
			"bufferView":131,
			"componentType":5126,
			"count":12610,
			"max":[
				-1.3576847314834595,
				0.6372544169425964,
				0.3534168004989624
			],
			"min":[
				-1.4359992742538452,
				0.558150053024292,
				0.22415931522846222
			],
			"type":"VEC3"
		},
		{
			"bufferView":132,
			"componentType":5126,
			"count":12610,
			"type":"VEC3"
		},
		{
			"bufferView":133,
			"componentType":5126,
			"count":12610,
			"type":"VEC2"
		},
		{
			"bufferView":134,
			"componentType":5123,
			"count":68736,
			"type":"SCALAR"
		},
		{
			"bufferView":135,
			"componentType":5126,
			"count":1876,
			"max":[
				-0.10672922432422638,
				0.3016822338104248,
				0.36454159021377563
			],
			"min":[
				-0.14539480209350586,
				0.26301664113998413,
				0.21058015525341034
			],
			"type":"VEC3"
		},
		{
			"bufferView":136,
			"componentType":5126,
			"count":1876,
			"type":"VEC3"
		},
		{
			"bufferView":137,
			"componentType":5126,
			"count":1876,
			"type":"VEC2"
		},
		{
			"bufferView":138,
			"componentType":5123,
			"count":9984,
			"type":"SCALAR"
		},
		{
			"bufferView":139,
			"componentType":5126,
			"count":5420,
			"max":[
				0.46328863501548767,
				0.1963023692369461,
				0.3126084506511688
			],
			"min":[
				0.3968828618526459,
				0.03240567445755005,
				0.26496753096580505
			],
			"type":"VEC3"
		},
		{
			"bufferView":140,
			"componentType":5126,
			"count":5420,
			"type":"VEC3"
		},
		{
			"bufferView":141,
			"componentType":5126,
			"count":5420,
			"type":"VEC2"
		},
		{
			"bufferView":142,
			"componentType":5123,
			"count":27600,
			"type":"SCALAR"
		},
		{
			"bufferView":143,
			"componentType":5126,
			"count":1427,
			"max":[
				0.08083925396203995,
				0.3999903202056885,
				0.22525598108768463
			],
			"min":[
				0.05158479884266853,
				0.37061625719070435,
				0.2096237987279892
			],
			"type":"VEC3"
		},
		{
			"bufferView":144,
			"componentType":5126,
			"count":1427,
			"type":"VEC3"
		},
		{
			"bufferView":145,
			"componentType":5126,
			"count":1427,
			"type":"VEC2"
		},
		{
			"bufferView":146,
			"componentType":5126,
			"count":6124,
			"max":[
				-0.18207943439483643,
				0.40385931730270386,
				0.357267290353775
			],
			"min":[
				-1.5189123153686523,
				0.2815861403942108,
				0.22030863165855408
			],
			"type":"VEC3"
		},
		{
			"bufferView":147,
			"componentType":5126,
			"count":6124,
			"type":"VEC3"
		},
		{
			"bufferView":148,
			"componentType":5126,
			"count":6124,
			"type":"VEC2"
		},
		{
			"bufferView":149,
			"componentType":5123,
			"count":32352,
			"type":"SCALAR"
		},
		{
			"bufferView":150,
			"componentType":5126,
			"count":75514,
			"max":[
				0.8835431933403015,
				0.39622312784194946,
				0.37835046648979187
			],
			"min":[
				-0.156894251704216,
				-0.2591545283794403,
				0.17370805144309998
			],
			"type":"VEC3"
		},
		{
			"bufferView":151,
			"componentType":5126,
			"count":75514,
			"type":"VEC3"
		},
		{
			"bufferView":152,
			"componentType":5126,
			"count":75514,
			"type":"VEC2"
		},
		{
			"bufferView":153,
			"componentType":5125,
			"count":420792,
			"type":"SCALAR"
		},
		{
			"bufferView":154,
			"componentType":5126,
			"count":14531,
			"max":[
				1.688407063484192,
				0.4892714023590088,
				0.3422694802284241
			],
			"min":[
				0.883031964302063,
				-0.011557824909687042,
				0.2353065013885498
			],
			"type":"VEC3"
		},
		{
			"bufferView":155,
			"componentType":5126,
			"count":14531,
			"type":"VEC3"
		},
		{
			"bufferView":156,
			"componentType":5126,
			"count":14531,
			"type":"VEC2"
		},
		{
			"bufferView":157,
			"componentType":5123,
			"count":65958,
			"type":"SCALAR"
		},
		{
			"bufferView":158,
			"componentType":5126,
			"count":1283,
			"max":[
				1.5408717393875122,
				0.2981719374656677,
				0.3402773141860962
			],
			"min":[
				1.3494117259979248,
				0.0447068065404892,
				0.322676420211792
			],
			"type":"VEC3"
		},
		{
			"bufferView":159,
			"componentType":5126,
			"count":1283,
			"type":"VEC3"
		},
		{
			"bufferView":160,
			"componentType":5126,
			"count":1283,
			"type":"VEC2"
		},
		{
			"bufferView":161,
			"componentType":5123,
			"count":6786,
			"type":"SCALAR"
		},
		{
			"bufferView":162,
			"componentType":5126,
			"count":3910,
			"max":[
				-1.4810198545455933,
				0.38631030917167664,
				0.4030403792858124
			],
			"min":[
				-1.505862832069397,
				0.36136576533317566,
				0.1745355725288391
			],
			"type":"VEC3"
		},
		{
			"bufferView":163,
			"componentType":5126,
			"count":3910,
			"type":"VEC3"
		},
		{
			"bufferView":164,
			"componentType":5126,
			"count":3910,
			"type":"VEC2"
		},
		{
			"bufferView":165,
			"componentType":5123,
			"count":21024,
			"type":"SCALAR"
		},
		{
			"bufferView":166,
			"componentType":5126,
			"count":2139,
			"max":[
				0.7652514576911926,
				0.6049489974975586,
				0.32831665873527527
			],
			"min":[
				0.7507581114768982,
				0.5904556512832642,
				0.2513194680213928
			],
			"type":"VEC3"
		},
		{
			"bufferView":167,
			"componentType":5126,
			"count":2139,
			"type":"VEC3"
		},
		{
			"bufferView":168,
			"componentType":5126,
			"count":2139,
			"type":"VEC2"
		},
		{
			"bufferView":169,
			"componentType":5123,
			"count":8064,
			"type":"SCALAR"
		},
		{
			"bufferView":170,
			"componentType":5126,
			"count":491,
			"max":[
				-1.3928261995315552,
				0.7242423892021179,
				0.2980809807777405
			],
			"min":[
				-1.4114121198654175,
				0.6898149251937866,
				0.2794950008392334
			],
			"type":"VEC3"
		},
		{
			"bufferView":171,
			"componentType":5126,
			"count":491,
			"type":"VEC3"
		},
		{
			"bufferView":172,
			"componentType":5126,
			"count":491,
			"type":"VEC2"
		},
		{
			"bufferView":173,
			"componentType":5123,
			"count":2160,
			"type":"SCALAR"
		},
		{
			"bufferView":174,
			"componentType":5126,
			"count":13830,
			"max":[
				0.2706736624240875,
				0.11066171526908875,
				0.3655809164047241
			],
			"min":[
				-0.08147513121366501,
				-0.31596463918685913,
				0.2119952142238617
			],
			"type":"VEC3"
		},
		{
			"bufferView":175,
			"componentType":5126,
			"count":13830,
			"type":"VEC3"
		},
		{
			"bufferView":176,
			"componentType":5126,
			"count":13830,
			"type":"VEC2"
		},
		{
			"bufferView":177,
			"componentType":5123,
			"count":76560,
			"type":"SCALAR"
		},
		{
			"bufferView":178,
			"componentType":5126,
			"count":2854,
			"max":[
				-1.1638034582138062,
				0.3885250687599182,
				0.3934732973575592
			],
			"min":[
				-1.193057894706726,
				0.3591509759426117,
				0.18410266935825348
			],
			"type":"VEC3"
		},
		{
			"bufferView":179,
			"componentType":5126,
			"count":2854,
			"type":"VEC3"
		},
		{
			"bufferView":180,
			"componentType":5126,
			"count":2854,
			"type":"VEC2"
		},
		{
			"bufferView":181,
			"componentType":5126,
			"count":2854,
			"max":[
				0.8164454102516174,
				0.3909663259983063,
				0.368125319480896
			],
			"min":[
				0.7871907353401184,
				0.36159223318099976,
				0.20945046842098236
			],
			"type":"VEC3"
		},
		{
			"bufferView":182,
			"componentType":5126,
			"count":2854,
			"type":"VEC3"
		},
		{
			"bufferView":183,
			"componentType":5126,
			"count":2854,
			"type":"VEC2"
		},
		{
			"bufferView":184,
			"componentType":5126,
			"count":1427,
			"max":[
				0.3930279314517975,
				0.3999903202056885,
				0.22525598108768463
			],
			"min":[
				0.36377349495887756,
				0.37061625719070435,
				0.2096237987279892
			],
			"type":"VEC3"
		},
		{
			"bufferView":185,
			"componentType":5126,
			"count":1427,
			"type":"VEC3"
		},
		{
			"bufferView":186,
			"componentType":5126,
			"count":1427,
			"type":"VEC2"
		},
		{
			"bufferView":187,
			"componentType":5126,
			"count":3348,
			"max":[
				0.9487617015838623,
				0.5335894227027893,
				0.37713658809661865
			],
			"min":[
				0.8463617563247681,
				0.19225791096687317,
				0.20043939352035522
			],
			"type":"VEC3"
		},
		{
			"bufferView":188,
			"componentType":5126,
			"count":3348,
			"type":"VEC3"
		},
		{
			"bufferView":189,
			"componentType":5126,
			"count":3348,
			"type":"VEC2"
		},
		{
			"bufferView":190,
			"componentType":5123,
			"count":17172,
			"type":"SCALAR"
		},
		{
			"bufferView":191,
			"componentType":5126,
			"count":2854,
			"max":[
				-0.7760452628135681,
				0.3885250687599182,
				0.3934732973575592
			],
			"min":[
				-0.8052997589111328,
				0.3591509759426117,
				0.1841025948524475
			],
			"type":"VEC3"
		},
		{
			"bufferView":192,
			"componentType":5126,
			"count":2854,
			"type":"VEC3"
		},
		{
			"bufferView":193,
			"componentType":5126,
			"count":2854,
			"type":"VEC2"
		},
		{
			"bufferView":194,
			"componentType":5126,
			"count":3530,
			"max":[
				0.7598678469657898,
				0.7325917482376099,
				0.2965790629386902
			],
			"min":[
				0.7439132928848267,
				0.6944829225540161,
				0.2809968888759613
			],
			"type":"VEC3"
		},
		{
			"bufferView":195,
			"componentType":5126,
			"count":3530,
			"type":"VEC3"
		},
		{
			"bufferView":196,
			"componentType":5126,
			"count":3530,
			"type":"VEC2"
		},
		{
			"bufferView":197,
			"componentType":5123,
			"count":19392,
			"type":"SCALAR"
		},
		{
			"bufferView":198,
			"componentType":5126,
			"count":6021,
			"max":[
				1.642492413520813,
				0.2623592019081116,
				0.34281080961227417
			],
			"min":[
				1.5831130743026733,
				0.04311259090900421,
				0.3206869661808014
			],
			"type":"VEC3"
		},
		{
			"bufferView":199,
			"componentType":5126,
			"count":6021,
			"type":"VEC3"
		},
		{
			"bufferView":200,
			"componentType":5126,
			"count":6021,
			"type":"VEC2"
		},
		{
			"bufferView":201,
			"componentType":5123,
			"count":32976,
			"type":"SCALAR"
		}
	],
	"bufferViews":[
		{
			"buffer":0,
			"byteLength":82248,
			"byteOffset":0,
			"target":34962
		},
		{
			"buffer":0,
			"byteLength":82248,
			"byteOffset":82248,
			"target":34962
		},
		{
			"buffer":0,
			"byteLength":54832,
			"byteOffset":164496,
			"target":34962
		},
		{
			"buffer":0,
			"byteLength":41952,
			"byteOffset":219328,
			"target":34963
		},
		{
			"buffer":0,
			"byteLength":14796,
			"byteOffset":261280,
			"target":34962
		},
		{
			"buffer":0,
			"byteLength":14796,
			"byteOffset":276076,
			"target":34962
		},
		{
			"buffer":0,
			"byteLength":9864,
			"byteOffset":290872,
			"target":34962
		},
		{
			"buffer":0,
			"byteLength":13440,
			"byteOffset":300736,
			"target":34963
		},
		{
			"buffer":0,
			"byteLength":748740,
			"byteOffset":314176,
			"target":34962
		},
		{
			"buffer":0,
			"byteLength":748740,
			"byteOffset":1062916,
			"target":34962
		},
		{
			"buffer":0,
			"byteLength":499160,
			"byteOffset":1811656,
			"target":34962
		},
		{
			"buffer":0,
			"byteLength":196032,
			"byteOffset":2310816,
			"target":34963
		},
		{
			"buffer":0,
			"byteLength":34248,
			"byteOffset":2506848,
			"target":34962
		},
		{
			"buffer":0,
			"byteLength":34248,
			"byteOffset":2541096,
			"target":34962
		},
		{
			"buffer":0,
			"byteLength":22832,
			"byteOffset":2575344,
			"target":34962
		},
		{
			"buffer":0,
			"byteLength":30528,
			"byteOffset":2598176,
			"target":34963
		},
		{
			"buffer":0,
			"byteLength":165744,
			"byteOffset":2628704,
			"target":34962
		},
		{
			"buffer":0,
			"byteLength":165744,
			"byteOffset":2794448,
			"target":34962
		},
		{
			"buffer":0,
			"byteLength":110496,
			"byteOffset":2960192,
			"target":34962
		},
		{
			"buffer":0,
			"byteLength":154368,
			"byteOffset":3070688,
			"target":34963
		},
		{
			"buffer":0,
			"byteLength":50148,
			"byteOffset":3225056,
			"target":34962
		},
		{
			"buffer":0,
			"byteLength":50148,
			"byteOffset":3275204,
			"target":34962
		},
		{
			"buffer":0,
			"byteLength":33432,
			"byteOffset":3325352,
			"target":34962
		},
		{
			"buffer":0,
			"byteLength":45576,
			"byteOffset":3358784,
			"target":34963
		},
		{
			"buffer":0,
			"byteLength":44892,
			"byteOffset":3404360,
			"target":34962
		},
		{
			"buffer":0,
			"byteLength":44892,
			"byteOffset":3449252,
			"target":34962
		},
		{
			"buffer":0,
			"byteLength":29928,
			"byteOffset":3494144,
			"target":34962
		},
		{
			"buffer":0,
			"byteLength":41184,
			"byteOffset":3524072,
			"target":34963
		},
		{
			"buffer":0,
			"byteLength":23460,
			"byteOffset":3565256,
			"target":34962
		},
		{
			"buffer":0,
			"byteLength":23460,
			"byteOffset":3588716,
			"target":34962
		},
		{
			"buffer":0,
			"byteLength":15640,
			"byteOffset":3612176,
			"target":34962
		},
		{
			"buffer":0,
			"byteLength":21024,
			"byteOffset":3627816,
			"target":34963
		},
		{
			"buffer":0,
			"byteLength":9024,
			"byteOffset":3648840,
			"target":34962
		},
		{
			"buffer":0,
			"byteLength":9024,
			"byteOffset":3657864,
			"target":34962
		},
		{
			"buffer":0,
			"byteLength":6016,
			"byteOffset":3666888,
			"target":34962
		},
		{
			"buffer":0,
			"byteLength":7680,
			"byteOffset":3672904,
			"target":34963
		},
		{
			"buffer":0,
			"byteLength":17124,
			"byteOffset":3680584,
			"target":34962
		},
		{
			"buffer":0,
			"byteLength":17124,
			"byteOffset":3697708,
			"target":34962
		},
		{
			"buffer":0,
			"byteLength":11416,
			"byteOffset":3714832,
			"target":34962
		},
		{
			"buffer":0,
			"byteLength":15264,
			"byteOffset":3726248,
			"target":34963
		},
		{
			"buffer":0,
			"byteLength":68568,
			"byteOffset":3741512,
			"target":34962
		},
		{
			"buffer":0,
			"byteLength":68568,
			"byteOffset":3810080,
			"target":34962
		},
		{
			"buffer":0,
			"byteLength":45712,
			"byteOffset":3878648,
			"target":34962
		},
		{
			"buffer":0,
			"byteLength":60864,
			"byteOffset":3924360,
			"target":34963
		},
		{
			"buffer":0,
			"byteLength":111192,
			"byteOffset":3985224,
			"target":34962
		},
		{
			"buffer":0,
			"byteLength":111192,
			"byteOffset":4096416,
			"target":34962
		},
		{
			"buffer":0,
			"byteLength":74128,
			"byteOffset":4207608,
			"target":34962
		},
		{
			"buffer":0,
			"byteLength":107520,
			"byteOffset":4281736,
			"target":34963
		},
		{
			"buffer":0,
			"byteLength":262452,
			"byteOffset":4389256,
			"target":34962
		},
		{
			"buffer":0,
			"byteLength":262452,
			"byteOffset":4651708,
			"target":34962
		},
		{
			"buffer":0,
			"byteLength":174968,
			"byteOffset":4914160,
			"target":34962
		},
		{
			"buffer":0,
			"byteLength":183048,
			"byteOffset":5089128,
			"target":34963
		},
		{
			"buffer":0,
			"byteLength":301248,
			"byteOffset":5272176,
			"target":34962
		},
		{
			"buffer":0,
			"byteLength":301248,
			"byteOffset":5573424,
			"target":34962
		},
		{
			"buffer":0,
			"byteLength":200832,
			"byteOffset":5874672,
			"target":34962
		},
		{
			"buffer":0,
			"byteLength":266112,
			"byteOffset":6075504,
			"target":34963
		},
		{
			"buffer":0,
			"byteLength":18096,
			"byteOffset":6341616,
			"target":34962
		},
		{
			"buffer":0,
			"byteLength":18096,
			"byteOffset":6359712,
			"target":34962
		},
		{
			"buffer":0,
			"byteLength":12064,
			"byteOffset":6377808,
			"target":34962
		},
		{
			"buffer":0,
			"byteLength":15360,
			"byteOffset":6389872,
			"target":34963
		},
		{
			"buffer":0,
			"byteLength":69216,
			"byteOffset":6405232,
			"target":34962
		},
		{
			"buffer":0,
			"byteLength":69216,
			"byteOffset":6474448,
			"target":34962
		},
		{
			"buffer":0,
			"byteLength":46144,
			"byteOffset":6543664,
			"target":34962
		},
		{
			"buffer":0,
			"byteLength":63984,
			"byteOffset":6589808,
			"target":34963
		},
		{
			"buffer":0,
			"byteLength":23460,
			"byteOffset":6653792,
			"target":34962
		},
		{
			"buffer":0,
			"byteLength":23460,
			"byteOffset":6677252,
			"target":34962
		},
		{
			"buffer":0,
			"byteLength":15640,
			"byteOffset":6700712,
			"target":34962
		},
		{
			"buffer":0,
			"byteLength":125976,
			"byteOffset":6716352,
			"target":34962
		},
		{
			"buffer":0,
			"byteLength":125976,
			"byteOffset":6842328,
			"target":34962
		},
		{
			"buffer":0,
			"byteLength":83984,
			"byteOffset":6968304,
			"target":34962
		},
		{
			"buffer":0,
			"byteLength":113136,
			"byteOffset":7052288,
			"target":34963
		},
		{
			"buffer":0,
			"byteLength":34248,
			"byteOffset":7165424,
			"target":34962
		},
		{
			"buffer":0,
			"byteLength":34248,
			"byteOffset":7199672,
			"target":34962
		},
		{
			"buffer":0,
			"byteLength":22832,
			"byteOffset":7233920,
			"target":34962
		},
		{
			"buffer":0,
			"byteLength":238128,
			"byteOffset":7256752,
			"target":34962
		},
		{
			"buffer":0,
			"byteLength":238128,
			"byteOffset":7494880,
			"target":34962
		},
		{
			"buffer":0,
			"byteLength":158752,
			"byteOffset":7733008,
			"target":34962
		},
		{
			"buffer":0,
			"byteLength":226752,
			"byteOffset":7891760,
			"target":34963
		},
		{
			"buffer":0,
			"byteLength":863940,
			"byteOffset":8118512,
			"target":34962
		},
		{
			"buffer":0,
			"byteLength":863940,
			"byteOffset":8982452,
			"target":34962
		},
		{
			"buffer":0,
			"byteLength":575960,
			"byteOffset":9846392,
			"target":34962
		},
		{
			"buffer":0,
			"byteLength":1635192,
			"byteOffset":10422352,
			"target":34963
		},
		{
			"buffer":0,
			"byteLength":29784,
			"byteOffset":12057544,
			"target":34962
		},
		{
			"buffer":0,
			"byteLength":29784,
			"byteOffset":12087328,
			"target":34962
		},
		{
			"buffer":0,
			"byteLength":19856,
			"byteOffset":12117112,
			"target":34962
		},
		{
			"buffer":0,
			"byteLength":24192,
			"byteOffset":12136968,
			"target":34963
		},
		{
			"buffer":0,
			"byteLength":269652,
			"byteOffset":12161160,
			"target":34962
		},
		{
			"buffer":0,
			"byteLength":269652,
			"byteOffset":12430812,
			"target":34962
		},
		{
			"buffer":0,
			"byteLength":179768,
			"byteOffset":12700464,
			"target":34962
		},
		{
			"buffer":0,
			"byteLength":246702,
			"byteOffset":12880232,
			"target":34963
		},
		{
			"buffer":0,
			"byteLength":118992,
			"byteOffset":13126936,
			"target":34962
		},
		{
			"buffer":0,
			"byteLength":118992,
			"byteOffset":13245928,
			"target":34962
		},
		{
			"buffer":0,
			"byteLength":79328,
			"byteOffset":13364920,
			"target":34962
		},
		{
			"buffer":0,
			"byteLength":63696,
			"byteOffset":13444248,
			"target":34963
		},
		{
			"buffer":0,
			"byteLength":29952,
			"byteOffset":13507944,
			"target":34962
		},
		{
			"buffer":0,
			"byteLength":29952,
			"byteOffset":13537896,
			"target":34962
		},
		{
			"buffer":0,
			"byteLength":19968,
			"byteOffset":13567848,
			"target":34962
		},
		{
			"buffer":0,
			"byteLength":28032,
			"byteOffset":13587816,
			"target":34963
		},
		{
			"buffer":0,
			"byteLength":137160,
			"byteOffset":13615848,
			"target":34962
		},
		{
			"buffer":0,
			"byteLength":137160,
			"byteOffset":13753008,
			"target":34962
		},
		{
			"buffer":0,
			"byteLength":91440,
			"byteOffset":13890168,
			"target":34962
		},
		{
			"buffer":0,
			"byteLength":68400,
			"byteOffset":13981608,
			"target":34963
		},
		{
			"buffer":0,
			"byteLength":25296,
			"byteOffset":14050008,
			"target":34962
		},
		{
			"buffer":0,
			"byteLength":25296,
			"byteOffset":14075304,
			"target":34962
		},
		{
			"buffer":0,
			"byteLength":16864,
			"byteOffset":14100600,
			"target":34962
		},
		{
			"buffer":0,
			"byteLength":16128,
			"byteOffset":14117464,
			"target":34963
		},
		{
			"buffer":0,
			"byteLength":17124,
			"byteOffset":14133592,
			"target":34962
		},
		{
			"buffer":0,
			"byteLength":17124,
			"byteOffset":14150716,
			"target":34962
		},
		{
			"buffer":0,
			"byteLength":11416,
			"byteOffset":14167840,
			"target":34962
		},
		{
			"buffer":0,
			"byteLength":34248,
			"byteOffset":14179256,
			"target":34962
		},
		{
			"buffer":0,
			"byteLength":34248,
			"byteOffset":14213504,
			"target":34962
		},
		{
			"buffer":0,
			"byteLength":22832,
			"byteOffset":14247752,
			"target":34962
		},
		{
			"buffer":0,
			"byteLength":51840,
			"byteOffset":14270584,
			"target":34962
		},
		{
			"buffer":0,
			"byteLength":51840,
			"byteOffset":14322424,
			"target":34962
		},
		{
			"buffer":0,
			"byteLength":34560,
			"byteOffset":14374264,
			"target":34962
		},
		{
			"buffer":0,
			"byteLength":25044,
			"byteOffset":14408824,
			"target":34963
		},
		{
			"buffer":0,
			"byteLength":21264,
			"byteOffset":14433868,
			"target":34962
		},
		{
			"buffer":0,
			"byteLength":21264,
			"byteOffset":14455132,
			"target":34962
		},
		{
			"buffer":0,
			"byteLength":14176,
			"byteOffset":14476396,
			"target":34962
		},
		{
			"buffer":0,
			"byteLength":19008,
			"byteOffset":14490572,
			"target":34963
		},
		{
			"buffer":0,
			"byteLength":79740,
			"byteOffset":14509580,
			"target":34962
		},
		{
			"buffer":0,
			"byteLength":79740,
			"byteOffset":14589320,
			"target":34962
		},
		{
			"buffer":0,
			"byteLength":53160,
			"byteOffset":14669060,
			"target":34962
		},
		{
			"buffer":0,
			"byteLength":70896,
			"byteOffset":14722220,
			"target":34963
		},
		{
			"buffer":0,
			"byteLength":238128,
			"byteOffset":14793116,
			"target":34962
		},
		{
			"buffer":0,
			"byteLength":238128,
			"byteOffset":15031244,
			"target":34962
		},
		{
			"buffer":0,
			"byteLength":158752,
			"byteOffset":15269372,
			"target":34962
		},
		{
			"buffer":0,
			"byteLength":466944,
			"byteOffset":15428124,
			"target":34962
		},
		{
			"buffer":0,
			"byteLength":466944,
			"byteOffset":15895068,
			"target":34962
		},
		{
			"buffer":0,
			"byteLength":311296,
			"byteOffset":16362012,
			"target":34962
		},
		{
			"buffer":0,
			"byteLength":444480,
			"byteOffset":16673308,
			"target":34963
		},
		{
			"buffer":0,
			"byteLength":151320,
			"byteOffset":17117788,
			"target":34962
		},
		{
			"buffer":0,
			"byteLength":151320,
			"byteOffset":17269108,
			"target":34962
		},
		{
			"buffer":0,
			"byteLength":100880,
			"byteOffset":17420428,
			"target":34962
		},
		{
			"buffer":0,
			"byteLength":137472,
			"byteOffset":17521308,
			"target":34963
		},
		{
			"buffer":0,
			"byteLength":22512,
			"byteOffset":17658780,
			"target":34962
		},
		{
			"buffer":0,
			"byteLength":22512,
			"byteOffset":17681292,
			"target":34962
		},
		{
			"buffer":0,
			"byteLength":15008,
			"byteOffset":17703804,
			"target":34962
		},
		{
			"buffer":0,
			"byteLength":19968,
			"byteOffset":17718812,
			"target":34963
		},
		{
			"buffer":0,
			"byteLength":65040,
			"byteOffset":17738780,
			"target":34962
		},
		{
			"buffer":0,
			"byteLength":65040,
			"byteOffset":17803820,
			"target":34962
		},
		{
			"buffer":0,
			"byteLength":43360,
			"byteOffset":17868860,
			"target":34962
		},
		{
			"buffer":0,
			"byteLength":55200,
			"byteOffset":17912220,
			"target":34963
		},
		{
			"buffer":0,
			"byteLength":17124,
			"byteOffset":17967420,
			"target":34962
		},
		{
			"buffer":0,
			"byteLength":17124,
			"byteOffset":17984544,
			"target":34962
		},
		{
			"buffer":0,
			"byteLength":11416,
			"byteOffset":18001668,
			"target":34962
		},
		{
			"buffer":0,
			"byteLength":73488,
			"byteOffset":18013084,
			"target":34962
		},
		{
			"buffer":0,
			"byteLength":73488,
			"byteOffset":18086572,
			"target":34962
		},
		{
			"buffer":0,
			"byteLength":48992,
			"byteOffset":18160060,
			"target":34962
		},
		{
			"buffer":0,
			"byteLength":64704,
			"byteOffset":18209052,
			"target":34963
		},
		{
			"buffer":0,
			"byteLength":906168,
			"byteOffset":18273756,
			"target":34962
		},
		{
			"buffer":0,
			"byteLength":906168,
			"byteOffset":19179924,
			"target":34962
		},
		{
			"buffer":0,
			"byteLength":604112,
			"byteOffset":20086092,
			"target":34962
		},
		{
			"buffer":0,
			"byteLength":1683168,
			"byteOffset":20690204,
			"target":34963
		},
		{
			"buffer":0,
			"byteLength":174372,
			"byteOffset":22373372,
			"target":34962
		},
		{
			"buffer":0,
			"byteLength":174372,
			"byteOffset":22547744,
			"target":34962
		},
		{
			"buffer":0,
			"byteLength":116248,
			"byteOffset":22722116,
			"target":34962
		},
		{
			"buffer":0,
			"byteLength":131916,
			"byteOffset":22838364,
			"target":34963
		},
		{
			"buffer":0,
			"byteLength":15396,
			"byteOffset":22970280,
			"target":34962
		},
		{
			"buffer":0,
			"byteLength":15396,
			"byteOffset":22985676,
			"target":34962
		},
		{
			"buffer":0,
			"byteLength":10264,
			"byteOffset":23001072,
			"target":34962
		},
		{
			"buffer":0,
			"byteLength":13572,
			"byteOffset":23011336,
			"target":34963
		},
		{
			"buffer":0,
			"byteLength":46920,
			"byteOffset":23024908,
			"target":34962
		},
		{
			"buffer":0,
			"byteLength":46920,
			"byteOffset":23071828,
			"target":34962
		},
		{
			"buffer":0,
			"byteLength":31280,
			"byteOffset":23118748,
			"target":34962
		},
		{
			"buffer":0,
			"byteLength":42048,
			"byteOffset":23150028,
			"target":34963
		},
		{
			"buffer":0,
			"byteLength":25668,
			"byteOffset":23192076,
			"target":34962
		},
		{
			"buffer":0,
			"byteLength":25668,
			"byteOffset":23217744,
			"target":34962
		},
		{
			"buffer":0,
			"byteLength":17112,
			"byteOffset":23243412,
			"target":34962
		},
		{
			"buffer":0,
			"byteLength":16128,
			"byteOffset":23260524,
			"target":34963
		},
		{
			"buffer":0,
			"byteLength":5892,
			"byteOffset":23276652,
			"target":34962
		},
		{
			"buffer":0,
			"byteLength":5892,
			"byteOffset":23282544,
			"target":34962
		},
		{
			"buffer":0,
			"byteLength":3928,
			"byteOffset":23288436,
			"target":34962
		},
		{
			"buffer":0,
			"byteLength":4320,
			"byteOffset":23292364,
			"target":34963
		},
		{
			"buffer":0,
			"byteLength":165960,
			"byteOffset":23296684,
			"target":34962
		},
		{
			"buffer":0,
			"byteLength":165960,
			"byteOffset":23462644,
			"target":34962
		},
		{
			"buffer":0,
			"byteLength":110640,
			"byteOffset":23628604,
			"target":34962
		},
		{
			"buffer":0,
			"byteLength":153120,
			"byteOffset":23739244,
			"target":34963
		},
		{
			"buffer":0,
			"byteLength":34248,
			"byteOffset":23892364,
			"target":34962
		},
		{
			"buffer":0,
			"byteLength":34248,
			"byteOffset":23926612,
			"target":34962
		},
		{
			"buffer":0,
			"byteLength":22832,
			"byteOffset":23960860,
			"target":34962
		},
		{
			"buffer":0,
			"byteLength":34248,
			"byteOffset":23983692,
			"target":34962
		},
		{
			"buffer":0,
			"byteLength":34248,
			"byteOffset":24017940,
			"target":34962
		},
		{
			"buffer":0,
			"byteLength":22832,
			"byteOffset":24052188,
			"target":34962
		},
		{
			"buffer":0,
			"byteLength":17124,
			"byteOffset":24075020,
			"target":34962
		},
		{
			"buffer":0,
			"byteLength":17124,
			"byteOffset":24092144,
			"target":34962
		},
		{
			"buffer":0,
			"byteLength":11416,
			"byteOffset":24109268,
			"target":34962
		},
		{
			"buffer":0,
			"byteLength":40176,
			"byteOffset":24120684,
			"target":34962
		},
		{
			"buffer":0,
			"byteLength":40176,
			"byteOffset":24160860,
			"target":34962
		},
		{
			"buffer":0,
			"byteLength":26784,
			"byteOffset":24201036,
			"target":34962
		},
		{
			"buffer":0,
			"byteLength":34344,
			"byteOffset":24227820,
			"target":34963
		},
		{
			"buffer":0,
			"byteLength":34248,
			"byteOffset":24262164,
			"target":34962
		},
		{
			"buffer":0,
			"byteLength":34248,
			"byteOffset":24296412,
			"target":34962
		},
		{
			"buffer":0,
			"byteLength":22832,
			"byteOffset":24330660,
			"target":34962
		},
		{
			"buffer":0,
			"byteLength":42360,
			"byteOffset":24353492,
			"target":34962
		},
		{
			"buffer":0,
			"byteLength":42360,
			"byteOffset":24395852,
			"target":34962
		},
		{
			"buffer":0,
			"byteLength":28240,
			"byteOffset":24438212,
			"target":34962
		},
		{
			"buffer":0,
			"byteLength":38784,
			"byteOffset":24466452,
			"target":34963
		},
		{
			"buffer":0,
			"byteLength":72252,
			"byteOffset":24505236,
			"target":34962
		},
		{
			"buffer":0,
			"byteLength":72252,
			"byteOffset":24577488,
			"target":34962
		},
		{
			"buffer":0,
			"byteLength":48168,
			"byteOffset":24649740,
			"target":34962
		},
		{
			"buffer":0,
			"byteLength":65952,
			"byteOffset":24697908,
			"target":34963
		}
	],
	"samplers":[
		{
			"magFilter":9729,
			"minFilter":9987
		}
	],
	"buffers":[
		{
			"byteLength":24763860,
			"uri":"ScarHModel.bin"
		}
	]
}
