{
	"asset":{
		"generator":"Khronos glTF Blender I/O v4.0.44",
		"version":"2.0"
	},
	"scene":0,
	"scenes":[
		{
			"name":"Scene",
			"nodes":[
				0,
				1,
				2
			]
		}
	],
	"nodes":[
		{
			"mesh":0,
			"name":"KB3D_WZN_RoadSign_A_Main",
			"rotation":[
				0.7071068286895752,
				0,
				0,
				0.7071068286895752
			]
		},
		{
			"mesh":1,
			"name":"KB3D_WZN_RoadSign_B_Main",
			"rotation":[
				0.7071068286895752,
				0,
				0,
				0.7071068286895752
			]
		},
		{
			"mesh":2,
			"name":"KB3D_WZN_RoadSign_C_Main",
			"rotation":[
				0.7071068286895752,
				0,
				0,
				0.7071068286895752
			]
		}
	],
	"materials":[
		{
			"doubleSided":true,
			"name":"KB3D_WZN_WZSigns",
			"normalTexture":{
				"index":0,
				"scale":0
			},
			"pbrMetallicRoughness":{
				"baseColorTexture":{
					"index":1
				},
				"metallicRoughnessTexture":{
					"index":2
				}
			}
		},
		{
			"doubleSided":true,
			"name":"KB3D_WZN_MetalPitted",
			"normalTexture":{
				"index":3,
				"scale":0
			},
			"pbrMetallicRoughness":{
				"baseColorTexture":{
					"index":4
				},
				"metallicRoughnessTexture":{
					"index":5
				}
			}
		},
		{
			"doubleSided":true,
			"name":"KB3D_WZN_ConcreteDirty",
			"normalTexture":{
				"index":6,
				"scale":0
			},
			"pbrMetallicRoughness":{
				"baseColorTexture":{
					"index":7
				},
				"metallicRoughnessTexture":{
					"index":8
				}
			}
		}
	],
	"meshes":[
		{
			"name":"KB3D_WZN_RoadSign_A_Main",
			"primitives":[
				{
					"attributes":{
						"POSITION":0,
						"NORMAL":1,
						"TEXCOORD_0":2
					},
					"indices":3,
					"material":0
				},
				{
					"attributes":{
						"POSITION":4,
						"NORMAL":5,
						"TEXCOORD_0":6
					},
					"indices":7,
					"material":1
				}
			]
		},
		{
			"name":"KB3D_WZN_RoadSign_B_Main",
			"primitives":[
				{
					"attributes":{
						"POSITION":8,
						"NORMAL":9,
						"TEXCOORD_0":10
					},
					"indices":11,
					"material":0
				},
				{
					"attributes":{
						"POSITION":12,
						"NORMAL":13,
						"TEXCOORD_0":14
					},
					"indices":15,
					"material":2
				}
			]
		},
		{
			"name":"KB3D_WZN_RoadSign_C_Main",
			"primitives":[
				{
					"attributes":{
						"POSITION":16,
						"NORMAL":17,
						"TEXCOORD_0":18
					},
					"indices":19,
					"material":0
				},
				{
					"attributes":{
						"POSITION":20,
						"NORMAL":21,
						"TEXCOORD_0":22
					},
					"indices":23,
					"material":2
				}
			]
		}
	],
	"textures":[
		{
			"sampler":0,
			"source":0
		},
		{
			"sampler":0,
			"source":1
		},
		{
			"sampler":0,
			"source":2
		},
		{
			"sampler":0,
			"source":3
		},
		{
			"sampler":0,
			"source":4
		},
		{
			"sampler":0,
			"source":5
		},
		{
			"sampler":0,
			"source":6
		},
		{
			"sampler":0,
			"source":7
		},
		{
			"sampler":0,
			"source":8
		}
	],
	"images":[
		{
			"mimeType":"image/png",
			"name":"KB3D_WZN_WZSigns_normal",
			"uri":"KB3D_WZN_WZSigns_normal.png"
		},
		{
			"mimeType":"image/png",
			"name":"KB3D_WZN_WZSigns_basecolor",
			"uri":"KB3D_WZN_WZSigns_basecolor.png"
		},
		{
			"mimeType":"image/png",
			"name":"KB3D_WZN_WZSigns_metallic-KB3D_WZN_WZSigns_roughness",
			"uri":"KB3D_WZN_WZSigns_metallic-KB3D_WZN_WZSigns_roughness.png"
		},
		{
			"mimeType":"image/png",
			"name":"KB3D_WZN_MetalPitted_normal",
			"uri":"KB3D_WZN_MetalPitted_normal.png"
		},
		{
			"mimeType":"image/png",
			"name":"KB3D_WZN_MetalPitted_basecolor",
			"uri":"KB3D_WZN_MetalPitted_basecolor.png"
		},
		{
			"mimeType":"image/png",
			"name":"KB3D_WZN_MetalPitted_metallic-KB3D_WZN_MetalPitted_roughness",
			"uri":"KB3D_WZN_MetalPitted_metallic-KB3D_WZN_MetalPitted_roughness.png"
		},
		{
			"mimeType":"image/png",
			"name":"KB3D_WZN_ConcreteDirty_normal",
			"uri":"KB3D_WZN_ConcreteDirty_normal.png"
		},
		{
			"mimeType":"image/png",
			"name":"KB3D_WZN_ConcreteDirty_basecolor",
			"uri":"KB3D_WZN_ConcreteDirty_basecolor.png"
		},
		{
			"mimeType":"image/png",
			"name":"KB3D_WZN_ConcreteDirty_metallic-KB3D_WZN_ConcreteDirty_roughness",
			"uri":"KB3D_WZN_ConcreteDirty_metallic-KB3D_WZN_ConcreteDirty_roughness.png"
		}
	],
	"accessors":[
		{
			"bufferView":0,
			"componentType":5126,
			"count":8,
			"max":[
				64.76142120361328,
				101.10557556152344,
				-4.4441609382629395
			],
			"min":[
				62.92715835571289,
				101.10557556152344,
				-6.277128219604492
			],
			"type":"VEC3"
		},
		{
			"bufferView":1,
			"componentType":5126,
			"count":8,
			"type":"VEC3"
		},
		{
			"bufferView":2,
			"componentType":5126,
			"count":8,
			"type":"VEC2"
		},
		{
			"bufferView":3,
			"componentType":5123,
			"count":18,
			"type":"SCALAR"
		},
		{
			"bufferView":4,
			"componentType":5126,
			"count":4132,
			"max":[
				64.76142120361328,
				101.10557556152344,
				-0.1921990066766739
			],
			"min":[
				62.92715835571289,
				100.99324035644531,
				-6.277128219604492
			],
			"type":"VEC3"
		},
		{
			"bufferView":5,
			"componentType":5126,
			"count":4132,
			"type":"VEC3"
		},
		{
			"bufferView":6,
			"componentType":5126,
			"count":4132,
			"type":"VEC2"
		},
		{
			"bufferView":7,
			"componentType":5123,
			"count":10842,
			"type":"SCALAR"
		},
		{
			"bufferView":8,
			"componentType":5126,
			"count":81,
			"max":[
				59.86664581298828,
				101.1138687133789,
				-3.9838919639587402
			],
			"min":[
				57.666648864746094,
				101.1138687133789,
				-6.183891773223877
			],
			"type":"VEC3"
		},
		{
			"bufferView":9,
			"componentType":5126,
			"count":81,
			"type":"VEC3"
		},
		{
			"bufferView":10,
			"componentType":5126,
			"count":81,
			"type":"VEC2"
		},
		{
			"bufferView":11,
			"componentType":5123,
			"count":384,
			"type":"SCALAR"
		},
		{
			"bufferView":12,
			"componentType":5126,
			"count":5679,
			"max":[
				59.86664581298828,
				101.1138687133789,
				-0.19219499826431274
			],
			"min":[
				57.666648864746094,
				100.98493957519531,
				-6.183891773223877
			],
			"type":"VEC3"
		},
		{
			"bufferView":13,
			"componentType":5126,
			"count":5679,
			"type":"VEC3"
		},
		{
			"bufferView":14,
			"componentType":5126,
			"count":5679,
			"type":"VEC2"
		},
		{
			"bufferView":15,
			"componentType":5123,
			"count":15996,
			"type":"SCALAR"
		},
		{
			"bufferView":16,
			"componentType":5126,
			"count":296,
			"max":[
				55.036685943603516,
				101.20340728759766,
				-3.2324509620666504
			],
			"min":[
				50.38834762573242,
				101.18653106689453,
				-6.25668478012085
			],
			"type":"VEC3"
		},
		{
			"bufferView":17,
			"componentType":5126,
			"count":296,
			"type":"VEC3"
		},
		{
			"bufferView":18,
			"componentType":5126,
			"count":296,
			"type":"VEC2"
		},
		{
			"bufferView":19,
			"componentType":5123,
			"count":948,
			"type":"SCALAR"
		},
		{
			"bufferView":20,
			"componentType":5126,
			"count":48,
			"max":[
				54.62343215942383,
				101.18167114257812,
				0.5170369744300842
			],
			"min":[
				50.76188278198242,
				100.89540100097656,
				-6.302434921264648
			],
			"type":"VEC3"
		},
		{
			"bufferView":21,
			"componentType":5126,
			"count":48,
			"type":"VEC3"
		},
		{
			"bufferView":22,
			"componentType":5126,
			"count":48,
			"type":"VEC2"
		},
		{
			"bufferView":23,
			"componentType":5123,
			"count":72,
			"type":"SCALAR"
		}
	],
	"bufferViews":[
		{
			"buffer":0,
			"byteLength":96,
			"byteOffset":0,
			"target":34962
		},
		{
			"buffer":0,
			"byteLength":96,
			"byteOffset":96,
			"target":34962
		},
		{
			"buffer":0,
			"byteLength":64,
			"byteOffset":192,
			"target":34962
		},
		{
			"buffer":0,
			"byteLength":36,
			"byteOffset":256,
			"target":34963
		},
		{
			"buffer":0,
			"byteLength":49584,
			"byteOffset":292,
			"target":34962
		},
		{
			"buffer":0,
			"byteLength":49584,
			"byteOffset":49876,
			"target":34962
		},
		{
			"buffer":0,
			"byteLength":33056,
			"byteOffset":99460,
			"target":34962
		},
		{
			"buffer":0,
			"byteLength":21684,
			"byteOffset":132516,
			"target":34963
		},
		{
			"buffer":0,
			"byteLength":972,
			"byteOffset":154200,
			"target":34962
		},
		{
			"buffer":0,
			"byteLength":972,
			"byteOffset":155172,
			"target":34962
		},
		{
			"buffer":0,
			"byteLength":648,
			"byteOffset":156144,
			"target":34962
		},
		{
			"buffer":0,
			"byteLength":768,
			"byteOffset":156792,
			"target":34963
		},
		{
			"buffer":0,
			"byteLength":68148,
			"byteOffset":157560,
			"target":34962
		},
		{
			"buffer":0,
			"byteLength":68148,
			"byteOffset":225708,
			"target":34962
		},
		{
			"buffer":0,
			"byteLength":45432,
			"byteOffset":293856,
			"target":34962
		},
		{
			"buffer":0,
			"byteLength":31992,
			"byteOffset":339288,
			"target":34963
		},
		{
			"buffer":0,
			"byteLength":3552,
			"byteOffset":371280,
			"target":34962
		},
		{
			"buffer":0,
			"byteLength":3552,
			"byteOffset":374832,
			"target":34962
		},
		{
			"buffer":0,
			"byteLength":2368,
			"byteOffset":378384,
			"target":34962
		},
		{
			"buffer":0,
			"byteLength":1896,
			"byteOffset":380752,
			"target":34963
		},
		{
			"buffer":0,
			"byteLength":576,
			"byteOffset":382648,
			"target":34962
		},
		{
			"buffer":0,
			"byteLength":576,
			"byteOffset":383224,
			"target":34962
		},
		{
			"buffer":0,
			"byteLength":384,
			"byteOffset":383800,
			"target":34962
		},
		{
			"buffer":0,
			"byteLength":144,
			"byteOffset":384184,
			"target":34963
		}
	],
	"samplers":[
		{
			"magFilter":9729,
			"minFilter":9987
		}
	],
	"buffers":[
		{
			"byteLength":384328,
			"uri":"MiscItems.bin"
		}
	]
}
